# xmcd
#
# Track frame offsets:
#	180
#	15163
#	28716
#	42531
#	57011
#	71520
#	84538
#	95926
#	111352
#	122495
#	134381
#	149987
#	165511
#	175257
#	189343
#	203919
#	216774
#	230697
#	244461
#	254615
#
# Disc length: 3599 seconds
#
# Revision: 1
# Processed by: cddbd v1.5.2PL0 Copyright (c) Steve Scherf et al.
# Submitted via: audiograbber 1.83.01
#
DISCID=2d0e0d14
DTITLE=Schlager - Hab Schlager Im Herzen (2)
DYEAR=2006
DGENRE=A Cappella
TTITLE0=CATERINA VALENTE - 0 Mama,O Mama, 0 Mamajo
TTITLE1=MARGOT ESKENS - Mutti, du darfst doch nichl.weinen
TTITLE2=UDO JURGENS - Es waren weiBe Chrysanthemen
TTITLE3=LiSELOTTE MALKOWSKY - Das ganze Jahr lang blühen keine Rosen
TTITLE4=FRIEDEL HENSCH and DIE CYPRYS - Das alte Försterhaus
TTITLE5=ILJA GLUSGAL - Mein roter Bruder wohnt in Arizona
TTITLE6=BULLY BUHLAN - Ich möchr auf deiner Hochzeit Tanzen
TTITLE7=JORG MARIA BERG - Zwei Weisse Möwen (Lolita)
TTITLE8=ILLO SCHNEIDER - Teddy, mach Tanzmusik
TTITLE9=FAUSTO CAMPI and DIE LEONARDOS and SILVIO FRANCESCO - He Mister Banjo
TTITLE10=WILLY HAGARA - Diesmal muß es Liebe sein
TTITLE11=BULLY BUHLAN and MONA BAPTISTE - Es liegt was in der Luft
TTITLE12=ILLO SCHNEIDER - Sieben einsame Tage
TTITLE13=CATERINA VALENTE - Malaguena
TTITLE14=MARIA MUCKE - Heut' ist ein Feiertag für mich
TTITLE15=HEINZ ERHARDT - Herr Ober bitte zweimal eine Bockwurst
TTITLE16=PETER ALEXANDER - Der Mond hält seine Wacht
TTITLE17=BIBI JOHNS - Papa tanzt Mambo
TTITLE18=3 TRAVELLERS - Am Morgen, am Abend, bei Tag und in der Nacht
TTITLE19=KILIMA HAWAIIANS - Ein Pferd kehrt heim
EXTD=
EXTT0=
EXTT1=
EXTT2=
EXTT3=
EXTT4=
EXTT5=
EXTT6=
EXTT7=
EXTT8=
EXTT9=
EXTT10=
EXTT11=
EXTT12=
EXTT13=
EXTT14=
EXTT15=
EXTT16=
EXTT17=
EXTT18=
EXTT19=
PLAYORDER=
